name C:\Users\u0101727\Documents\MyRepositories\upper-imu-dc\Results\main_tracking\Case_50\kinematics.mot
datacolumns 10
datarows 42
range 0.00000000 0.41000000
endheader 
time	clav_prot	clav_elev	scapula_abduction	scapula_elevation	scapula_upward_rot	scapula_winging	plane_elv	shoulder_elv	axial_rot	
          0.00000000	        -29.28325136	         -2.61472010	        -22.92813363	         -3.79742154	         15.40380998	          3.80871189	        -30.92596081	         14.97271466	         23.58114130	
          0.01000000	        -29.20374710	         -2.60679486	        -22.83001660	         -3.79692940	         15.39876057	          3.80904819	        -30.90935147	         14.99707942	         23.31590454	
          0.02000000	        -29.21008615	         -2.60617031	        -22.84339084	         -3.79579892	         15.39440170	          3.80887746	        -30.89328190	         15.02309642	         23.05304792	
          0.03000000	        -29.21604290	         -2.60530152	        -22.85586946	         -3.79459543	         15.39059003	          3.80855353	        -30.87836433	         15.04911616	         22.79527769	
          0.04000000	        -29.22156767	         -2.60448854	        -22.86735548	         -3.79351151	         15.38720285	          3.80821195	        -30.86538195	         15.07418193	         22.54594407	
          0.05000000	        -29.22663962	         -2.60390513	        -22.87779355	         -3.79266452	         15.38418972	          3.80792468	        -30.85514359	         15.09772404	         22.30864781	
          0.06000000	        -29.23126434	         -2.60366883	        -22.88717435	         -3.79213722	         15.38152431	          3.80773502	        -30.84842377	         15.11935758	         22.08689359	
          0.07000000	        -29.23548711	         -2.60390664	        -22.89557409	         -3.79201299	         15.37914336	          3.80769190	        -30.84592412	         15.13884141	         21.88384192	
          0.08000000	        -29.23940261	         -2.60478532	        -22.90317357	         -3.79239451	         15.37692725	          3.80786277	        -30.84826694	         15.15606697	         21.70210464	
          0.09000000	        -29.24315384	         -2.60650970	        -22.91025578	         -3.79340282	         15.37470164	          3.80833286	        -30.85599180	         15.17104840	         21.54360917	
          0.10000000	        -29.24692170	         -2.60931213	        -22.91718073	         -3.79517327	         15.37225581	          3.80919893	        -30.86955508	         15.18391481	         21.40952344	
          0.11000000	        -29.25090916	         -2.61343371	        -22.92434796	         -3.79784715	         15.36937011	          3.81055911	        -30.88932544	         15.19489984	         21.30023604	
          0.12000000	        -29.25532297	         -2.61910187	        -22.93215416	         -3.80156129	         15.36584687	          3.81250103	        -30.91557265	         15.20432895	         21.21538243	
          0.13000000	        -29.26035754	         -2.62650761	        -22.94095590	         -3.80643689	         15.36153888	          3.81509015	        -30.94844910	         15.21260525	         21.15390969	
          0.14000000	        -29.26618464	         -2.63578544	        -22.95104590	         -3.81256888	         15.35636997	          3.81835995	        -30.98796525	         15.22019523	         21.11417553	
          0.15000000	        -29.27295050	         -2.64699933	        -22.96264623	         -3.82001764	         15.35034530	          3.82230531	        -31.03396216	         15.22761467	         21.09407904	
          0.16000000	        -29.28077956	         -2.66013692	        -22.97591688	         -3.82880463	         15.34355032	          3.82688023	        -31.08608597	         15.23541424	         21.09121567	
          0.17000000	        -29.28978569	         -2.67511268	        -22.99098123	         -3.83891225	         15.33613771	          3.83200010	        -31.14376919	         15.24416613	         21.10303863	
          0.18000000	        -29.30008918	         -2.69177739	        -23.00796514	         -3.85028649	         15.32830481	          3.83754744	        -31.20622102	         15.25445499	         21.12700291	
          0.19000000	        -29.31183339	         -2.70993054	        -23.02703541	         -3.86284139	         15.32026967	          3.84337882	        -31.27242656	         15.26687382	         21.16067340	
          0.20000000	        -29.32519557	         -2.72933214	        -23.04842525	         -3.87646399	         15.31225235	          3.84933127	        -31.34115420	         15.28202415	         21.20179124	
          0.21000000	        -29.34039225	         -2.74971212	        -23.07244801	         -3.89101866	         15.30446255	          3.85522722	        -31.41096999	         15.30051840	         21.24830233	
          0.22000000	        -29.35768297	         -2.77077658	        -23.09950692	         -3.90634973	         15.29709006	          3.86087793	        -31.48025512	         15.32298153	         21.29835489	
          0.23000000	        -29.37737478	         -2.79221130	        -23.13010685	         -3.92228211	         15.29029578	          3.86608569	        -31.54722184	         15.35004991	         21.35027211	
          0.24000000	        -29.39982748	         -2.81368230	        -23.16486748	         -3.93862003	         15.28420347	          3.87064471	        -31.60992558	         15.38236832	         21.40250433	
          0.25000000	        -29.42545734	         -2.83483455	        -23.20453329	         -3.95514482	         15.27889379	          3.87434097	        -31.66627376	         15.42058643	         21.45356385	
          0.26000000	        -29.45473656	         -2.85529054	        -23.24997394	         -3.97161332	         15.27440224	          3.87695164	        -31.71403469	         15.46535570	         21.50194606	
          0.27000000	        -29.48818589	         -2.87465085	        -23.30216936	         -3.98775869	         15.27072261	          3.87824489	        -31.75085102	         15.51732752	         21.54604192	
          0.28000000	        -29.52635864	         -2.89249778	        -23.36217598	         -4.00329455	         15.26781669	          3.87798049	        -31.77426351	         15.57715335	         21.58404958	
          0.29000000	        -29.56981694	         -2.90840252	        -23.43107545	         -4.01792281	         15.26562998	          3.87591151	        -31.78175054	         15.64548790	         21.61389493	
          0.30000000	        -29.61910227	         -2.92193533	        -23.50991022	         -4.03134446	         15.26411187	          3.87178699	        -31.77078574	         15.72299485	         21.63317129	
          0.31000000	        -29.67470272	         -2.93267852	        -23.59961176	         -4.04327297	         15.26323836	          3.86535579	        -31.73891228	         15.81035243	         21.63910704	
          0.32000000	        -29.73701972	         -2.94024232	        -23.70092701	         -4.05344972	         15.26303470	          3.85637189	        -31.68382642	         15.90825387	         21.62856725	
          0.33000000	        -29.80633828	         -2.94428239	        -23.81435285	         -4.06166007	         15.26359451	          3.84460114	        -31.60346057	         16.01739948	         21.59809278	
          0.34000000	        -29.88280523	         -2.94451574	        -23.94008786	         -4.06774719	         15.26509296	          3.82982814	        -31.49605673	         16.13848275	         21.54397671	
          0.35000000	        -29.96641597	         -2.94073085	        -24.07800282	         -4.07162109	         15.26779577	          3.81186133	        -31.36022484	         16.27217513	         21.46237537	
          0.36000000	        -30.05700638	         -2.93279059	        -24.22762213	         -4.07326227	         15.27206783	          3.79053539	        -31.19498450	         16.41911049	         21.34944859	
          0.37000000	        -30.15424772	         -2.92062923	        -24.38811155	         -4.07272147	         15.27838282	          3.76571155	        -30.99979064	         16.57986727	         21.20152082	
          0.38000000	        -30.25764716	         -2.90424613	        -24.55827830	         -4.07011639	         15.28732978	          3.73727679	        -30.77454485	         16.75494772	         21.01525315	
          0.39000000	        -30.36655902	         -2.88369756	        -24.73659460	         -4.06562545	         15.29961081	          3.70514286	        -30.51959226	         16.94475700	         20.78781372	
          0.40000000	        -30.48020919	         -2.85908688	        -24.92125069	         -4.05947822	         15.31602674	          3.66924524	        -30.23570232	         17.14958549	         20.51703419	
          0.41000000	        -30.59773121	         -2.83055301	        -25.11023412	         -4.05194249	         15.33745160	          3.62954132	        -29.92403139	         17.36959667	         20.20154043	
